<?xml version="1.0" encoding="UTF-8"?>
<svg width="380px" height="551px" viewBox="0 0 380 551" version="1.1" xmlns="http://www.w3.org/2000/svg" xmlns:xlink="http://www.w3.org/1999/xlink">
    <!-- Generator: Sketch 49.3 (51167) - http://www.bohemiancoding.com/sketch -->
    <title>mic</title>
    <desc>Created with Sketch.</desc>
    <defs></defs>
    <g id="Page-1" stroke="none" stroke-width="1" fill="none" fill-rule="evenodd">
        <g id="mic" fill="#000000" fill-rule="nonzero">
            <path d="M379.402,276.449 C379.402,267.875 372.45,260.923 363.876,260.923 C355.302,260.923 348.35,267.875 348.35,276.449 C348.35,363.763 277.309,434.798 189.995,434.798 C102.681,434.798 31.646,363.763 31.646,276.449 C31.646,267.875 24.694,260.923 16.12,260.923 C7.546,260.923 0.594,267.875 0.594,276.449 C0.594,375.654 77.278,457.228 174.475,465.159 L174.475,519.853 L122.112,519.853 C113.538,519.853 106.586,526.805 106.586,535.379 C106.586,543.953 113.538,550.905 122.112,550.905 L257.89,550.905 C266.464,550.905 273.416,543.953 273.416,535.379 C273.416,526.805 266.464,519.853 257.89,519.853 L205.527,519.853 L205.527,465.159 C302.724,457.227 379.402,375.648 379.402,276.449 Z" id="Shape"></path>
            <path d="M190,416.168 C267.045,416.168 329.726,353.487 329.726,276.448 L329.726,139.826 C329.726,62.781 267.045,0.1 190,0.1 C112.955,0.1 50.274,62.781 50.274,139.826 L50.274,276.449 C50.274,353.487 112.955,416.168 190,416.168 Z M81.327,139.826 C81.327,79.905 130.079,31.153 190,31.153 C249.921,31.153 298.673,79.905 298.673,139.826 L298.673,276.449 C298.673,336.37 249.921,385.122 190,385.122 C130.079,385.122 81.327,336.376 81.327,276.449 L81.327,139.826 Z" id="Shape"></path>
            <path d="M138.274,150.456 L241.72,150.456 C250.294,150.456 257.246,143.504 257.246,134.93 C257.246,126.356 250.294,119.404 241.72,119.404 L138.274,119.404 C129.7,119.404 122.748,126.356 122.748,134.93 C122.753,143.51 129.7,150.456 138.274,150.456 Z" id="Shape"></path>
            <path d="M138.274,223.657 L241.72,223.657 C250.294,223.657 257.246,216.705 257.246,208.131 C257.246,199.557 250.294,192.605 241.72,192.605 L138.274,192.605 C129.7,192.605 122.748,199.557 122.748,208.131 C122.753,216.711 129.7,223.657 138.274,223.657 Z" id="Shape"></path>
            <path d="M138.274,296.865 L241.72,296.865 C250.294,296.865 257.246,289.913 257.246,281.339 C257.246,272.765 250.294,265.813 241.72,265.813 L138.274,265.813 C129.7,265.813 122.748,272.765 122.748,281.339 C122.753,289.913 129.7,296.865 138.274,296.865 Z" id="Shape"></path>
        </g>
    </g>
</svg>